<svg width="50" height="50" viewBox="0 0 50 50" fill="none" xmlns="http://www.w3.org/2000/svg">
<path d="M8.51064 35.6426C8.51064 41.1273 5.99357e-08 41.1273 -1.79807e-07 35.6426L-1.31909e-06 4.57877C-1.55884e-06 -0.90591 8.51064 -0.905911 8.51064 4.57877L8.51064 35.6426Z" fill="#00C3DE"/>
<path d="M22.3407 45.7446C22.3407 51.2293 13.8301 51.2293 13.8301 45.7446L13.8301 14.6808C13.8301 9.19614 22.3407 9.19614 22.3407 14.6808L22.3407 45.7446Z" fill="#00C3DE"/>
<path d="M36.1698 35.6426C36.1698 41.1273 27.6592 41.1273 27.6592 35.6426L27.6592 4.57877C27.6592 -0.90591 36.1698 -0.905911 36.1698 4.57877L36.1698 35.6426Z" fill="#00C3DE"/>
<path d="M49.9999 45.7446C49.9999 51.2293 41.4893 51.2293 41.4893 45.7446L41.4893 15.6808C41.4893 10.1961 49.9999 10.1961 49.9999 15.6808L49.9999 45.7446Z" fill="#00C3DE"/>
</svg>
